:SAMPLES-PER-SECOND 30
:FULLY-SPECIFIED
:DEGREES
83
root  -41.0561 35.9938 -30.0316 54.5095 -87.9377 -16.6781
RightUpLeg  -81.5183 -17.6157 24.5547
RightLeg  45.7665 2.06373 1.93995
RightFoot  -0.541762 1.27344 -13.4363
RightToes  0.00048216 0.542163 -0.142577
Spine  74.8852 -4.94956 6.16983
Spine1  3.36379 0.700222 -7.69755
HEad  -46.2491 -5.54386 2.12143
LeftShoulder1  5.45881 -24.5708 -12.2382
LeftArm  -91.3455 -61.9185 22.9413
LeftForeArm  3.01625 -29.128 -6.15745
LeftHand  -0.25398 0.0180481 5.50724
RightShoulder  2.62832 14.8902 6.6463
RightArm  -78.8246 43.6164 -17.5966
RightForeArm  -13.8046 25.9101 6.24531
RightHand  1.24111 5.75644 12.43
LeftUpLeg  -75.9105 11.904 -7.17229
LeftLeg  49.9428 1.17179 1.9448
LeftFoot  -6.80225 0.067878 -0.685864
LeftToes  1.06246e-005 4.65856e-005 -8.18501e-006
84
root  -40.8415 36.288 -29.8402 49.9862 -88.3092 -12.8361
RightUpLeg  -80.1439 -18.5118 24.6947
RightLeg  43.3045 2.70028 2.41434
RightFoot  0.722105 1.42467 -13.3626
RightToes  0.00048216 0.542163 -0.142577
Spine  74.2683 -4.9614 6.0304
Spine1  3.0768 0.578282 -7.94453
HEad  -45.6378 -5.34782 1.68116
LeftShoulder1  5.38647 -24.6822 -11.8701
LeftArm  -86.852 -61.875 19.1841
LeftForeArm  1.98019 -29.2628 -6.24627
LeftHand  -0.25398 0.0180481 5.50724
RightShoulder  2.80325 15.237 7.39429
RightArm  -74.0958 42.3569 -14.8113
RightForeArm  -16.3104 28.0057 6.86762
RightHand  1.11619 5.27804 11.6819
LeftUpLeg  -74.5279 11.7769 -7.6935
LeftLeg  48.0844 1.31904 2.00827
LeftFoot  -5.39581 0.0322163 -0.00665579
LeftToes  1.06246e-005 4.65856e-005 -8.18501e-006
85
root  -40.5912 36.619 -29.6345 42.0976 -88.4968 -5.8549
RightUpLeg  -78.3999 -19.5934 24.7051
RightLeg  40.474 3.47721 2.88346
RightFoot  2.08046 1.57384 -13.1797
RightToes  0.00048216 0.542163 -0.142577
Spine  73.4061 -4.9638 5.90926
Spine1  2.98311 0.477075 -8.10106
HEad  -44.937 -5.28884 0.949091
LeftShoulder1  5.43707 -24.9266 -11.8798
LeftArm  -80.9155 -61.6283 14.1937
LeftForeArm  0.544814 -29.9767 -6.50108
LeftHand  -0.25398 0.0180481 5.50724
RightShoulder  3.04903 15.3664 8.73737
RightArm  -69.6037 41.1167 -11.3411
RightForeArm  -18.9231 30.9976 7.75539
RightHand  0.981755 4.20859 11.4792
LeftUpLeg  -72.7256 11.6691 -8.29487
LeftLeg  45.7368 1.44628 2.00608
LeftFoot  -3.91092 -0.0455468 1.06354
LeftToes  1.06246e-005 4.65856e-005 -8.18501e-006
86
root  -40.3078 36.9544 -29.4105 39.0091 -88.4439 -4.0824
RightUpLeg  -76.0518 -20.8081 24.6511
RightLeg  37.3542 4.53466 3.43361
RightFoot  3.36191 1.73662 -13.2065
RightToes  0.00048216 0.542163 -0.142577
Spine  72.3357 -4.90596 5.8893
Spine1  3.21345 0.490133 -8.02565
HEad  -44.0669 -5.23511 -0.157528
LeftShoulder1  5.64462 -25.0353 -12.5979
LeftArm  -73.2206 -61.1381 7.8755
LeftForeArm  -0.97669 -31.7576 -7.03922
LeftHand  -0.25398 0.0180481 5.50724
RightShoulder  3.30322 15.2717 10.3374
RightArm  -65.1512 39.8048 -7.5863
RightForeArm  -21.0821 34.3107 8.77577
RightHand  0.803856 2.38396 11.7245
LeftUpLeg  -70.4584 11.6782 -8.68976
LeftLeg  43.2409 1.44959 1.86173
LeftFoot  -2.64196 -0.150966 2.19689
LeftToes  1.06246e-005 4.65856e-005 -8.18501e-006
87
root  -39.9739 37.2837 -29.1758 41.3783 -88.1903 -8.4055
RightUpLeg  -73.0214 -22.3417 24.6288
RightLeg  34.0796 5.62025 3.82583
RightFoot  4.71956 1.90263 -13.1859
RightToes  0.00048216 0.542163 -0.142577
Spine  71.2045 -4.85921 5.9099
Spine1  3.77277 0.556482 -7.96755
HEad  -43.1684 -4.75687 -1.4931
LeftShoulder1  5.73975 -24.8461 -13.1124
LeftArm  -64.317 -60.1728 0.404206
LeftForeArm  -2.17642 -33.7671 -7.642
LeftHand  -0.25398 0.0180481 5.50724
RightShoulder  3.52632 15.1181 11.8267
RightArm  -59.7112 38.0787 -3.55499
RightForeArm  -23.2916 37.397 9.82034
RightHand  0.582692 0.593456 11.239
LeftUpLeg  -67.6388 11.8602 -8.78831
LeftLeg  40.8332 1.2331 1.5303
LeftFoot  -1.4704 -0.26999 3.22872
LeftToes  1.06246e-005 4.65856e-005 -8.18501e-006
